<svg xmlns="http://www.w3.org/2000/svg" xmlns:xlink="http://www.w3.org/1999/xlink" width="1152px" height="484px" viewBox="0 0 1152 484"><title>logo-waves-gym</title><g id="Page-1" stroke="none" stroke-width="1" fill="none" fill-rule="evenodd"><g id="logo-waves-gym" transform="translate(0.000000, 0.000000)" fill-rule="nonzero"><path d="M575.69,166.62132 L558.08,217.81132 L524.22,309.35132 L493.42,309.35132 L500.91,232.07132 L475.67,309.35132 L444.87,309.35132 L449.86,217.67132 L453.92,166.63132 L477.8,166.63132 L468.18,271.64132 L503.18,166.63132 L526.35,166.63132 L516.73,271.64132 L516.74,271.63132 L551.74,166.62132 L575.69,166.62132 Z M621.73,166.63132 L616.67,258.17132 L616.66,258.16132 L612.6,309.35132 L588.65,309.35132 L591,279.69132 L573.54,279.69132 L563.27,309.35132 L539.39,309.35132 L557,258.38132 L590.93,166.63132 L621.73,166.63132 Z M596.27,213.68132 L581.37,256.88132 L592.78,256.88132 L596.27,213.68132 Z M809.33,164.41132 C826.25,164.41132 834.71,171.40132 834.71,185.37132 C834.71,188.32132 834.33,191.60132 833.57,195.21132 L829.29,215.46132 L805.55,215.46132 L809.83,195.21132 C810.07,194.17132 810.19,193.21132 810.19,192.36132 C810.19,188.94132 808.31,187.20132 804.56,187.16132 L804.42,187.16132 C799.81,187.16132 796.93,189.85132 795.79,195.22132 L793.08,207.91132 C792.94,208.53132 792.87,209.17132 792.87,209.83132 C792.87,215.30132 797.48,221.93132 806.7,229.72132 C815.59,237.13132 820.03,245.74132 820.03,255.53132 C820.03,258.00132 819.74,260.52132 819.17,263.09132 L815.39,280.77132 C811.02,301.35132 798.59,311.64132 778.1,311.64132 C761.18,311.59132 752.72,304.58132 752.72,290.61132 C752.72,287.66132 753.1,284.38132 753.86,280.77132 L758.14,260.52132 L781.88,260.52132 L777.6,280.77132 C777.36,281.82132 777.24,282.77132 777.24,283.62132 C777.24,287.09132 779.14,288.82132 782.94,288.82132 C787.6,288.82132 790.5,286.14132 791.64,280.76132 L795.06,264.79132 C795.2,264.08132 795.27,263.34132 795.27,262.58132 C795.27,256.73132 790.71,249.94132 781.58,242.19132 C772.79,234.82132 768.39,226.17132 768.39,216.24132 C768.39,213.67132 768.68,211.04132 769.25,208.33132 L772.03,195.21132 L772.05,195.21132 C776.42,174.68132 788.85,164.41132 809.33,164.41132 Z M661.89,166.62132 L650.77,278.47132 L687.2,166.62132 L711.15,166.62132 L693.54,217.81132 L659.684,309.34032 L628.89,309.34132 L633.88,217.66132 L637.94,166.62132 L661.89,166.62132 Z M715.98,166.61132 L715.98,166.62132 L771.87,166.62132 L767.02,189.36132 L734.87,189.36132 L727.03,226.57132 L754.69,226.57132 L749.84,249.38132 L722.18,249.38132 L714.27,286.59132 L746.42,286.59132 L741.57,309.33132 L685.68,309.33132 L715.98,166.61132 Z" id="txt-waves" fill="#FFFFFF"></path><path d="M895.9,226.58132 L925.77,226.58132 L914.22,280.76132 C909.85,301.29132 897.4,311.58132 876.86,311.63132 C859.99,311.63132 851.55,304.64132 851.55,290.67132 C851.55,287.68132 851.93,284.37132 852.69,280.76132 L870.87,195.21132 C875.24,174.68132 887.67,164.41132 908.16,164.41132 C925.08,164.41132 933.54,171.40132 933.54,185.37132 C933.54,188.32132 933.16,191.60132 932.4,195.21132 L928.12,215.46132 L904.38,215.46132 L908.66,195.21132 C908.9,194.17132 909.02,193.21132 909.02,192.36132 C909.02,188.94132 907.14,187.20132 903.39,187.16132 L903.25,187.16132 C898.64,187.16132 895.77,189.85132 894.63,195.22132 L876.45,280.77132 C876.21,281.82132 876.09,282.77132 876.09,283.62132 C876.09,287.09132 877.97,288.82132 881.72,288.82132 C886.43,288.82132 889.35,286.14132 890.49,280.76132 L897.19,249.39132 L891.06,249.39132 L895.91,226.58132 L895.9,226.58132 Z M966.94,166.62132 L967.58,221.73132 L991.61,166.62132 L1016.7,166.62132 L974.42,247.75132 L973.64,249.25132 L960.88,309.35132 L937.14,309.35132 L949.9,249.32132 L949.61,247.75132 L941.84,166.62132 L966.94,166.62132 Z M1044.97,166.62132 L1047.11,261.22132 L1089.17,166.62132 L1112.63,166.62132 L1082.33,309.34132 L1059.45,309.34132 L1073.42,243.68132 L1045.47,309.34132 L1028.79,309.34132 L1028.36,243.26132 L1014.32,309.34132 L991.22,309.34132 L1021.52,166.62132 L1044.97,166.62132 Z" id="txt-gym" fill="#FFFFFF"></path><path d="M1130.17,166.52132 C1132.95,166.52132 1134.34,167.67132 1134.34,169.97132 C1134.34,170.45132 1134.28,170.99132 1134.15,171.59132 L1133.45,174.92132 L1129.55,174.92132 L1130.25,171.59132 C1130.29,171.42132 1130.31,171.26132 1130.31,171.12132 C1130.31,170.56132 1130,170.27132 1129.38,170.26132 L1129.36,170.26132 C1128.6,170.26132 1128.13,170.70132 1127.94,171.58132 L1127.49,173.67132 C1127.47,173.77132 1127.45,173.88132 1127.45,173.99132 C1127.45,174.89132 1128.21,175.98132 1129.72,177.26132 C1131.18,178.48132 1131.91,179.89132 1131.91,181.50132 C1131.91,181.91132 1131.86,182.32132 1131.77,182.74132 L1131.15,185.65132 C1130.43,189.03132 1128.39,190.72132 1125.02,190.72132 C1122.24,190.72132 1120.85,189.56132 1120.85,187.26132 C1120.85,186.78132 1120.91,186.24132 1121.04,185.64132 L1121.74,182.31132 L1125.64,182.31132 L1124.94,185.64132 C1124.9,185.81132 1124.88,185.97132 1124.88,186.11132 C1124.88,186.68132 1125.19,186.97132 1125.82,186.97132 C1126.59,186.97132 1127.06,186.53132 1127.25,185.65132 L1127.81,183.03132 C1127.83,182.91132 1127.85,182.79132 1127.85,182.67132 C1127.85,181.71132 1127.1,180.59132 1125.6,179.32132 C1124.15,178.11132 1123.43,176.69132 1123.43,175.05132 C1123.43,174.63132 1123.48,174.19132 1123.57,173.75132 L1124.03,171.59132 L1124.04,171.58132 C1124.76,168.20132 1126.8,166.52132 1130.17,166.52132 Z M1140.63,166.88132 L1140.979,182.40932 L1147.88,166.88132 L1151.74,166.88132 L1146.76,190.34132 L1143,190.34132 L1145.3,179.55132 L1140.71,190.34132 L1137.97,190.34132 L1137.9,179.48132 L1135.59,190.34132 L1131.79,190.34132 L1136.77,166.88132 L1140.63,166.88132 Z" id="txt-sm" fill="#FFFFFF"></path><path d="M519,64.4413203 L524,69.4413203 L412.61,132.95132 C412.3252,133.11372 412.07016,133.259608 411.819398,133.393259 L411.63173,133.49127 L411.63173,133.49127 L411.443277,133.585093 C408.661872,134.932408 404.8564,135.05772 366.11,139.65132 L366.11,139.65132 L340,183.44132 L423.9,167.37132 L423.9,167.36132 C429.1,166.37132 427.42,171.16132 425.12,198.83132 L425.12,198.83132 L322.67,338.15132 L310.72,342.60132 L353.39,238.02132 L380.56,212.65132 L309,247.44132 C248.53,313.25132 217.58,351.77132 150.14,394.31132 C2.43,487.49132 18.53,479.73132 -2.27373675e-13,483.44132 C184.79,329.11132 179.4,331.44132 186.68,331.44132 L186.68,331.44132 L206,331.44132 L267.2,231.89132 L294,130.44132 L213,89.4413203 L213,89.4413203 L211.960362,90.1631442 C202.597972,96.666907 193.016071,103.384535 177.79,111.57132 C116.1,144.75132 132.2,137.86132 104,144.44132 C215.38,65.7613203 211.07,67.1513203 217.21,68.0313203 C289.68,78.3813203 334.11,95.0413203 402,115.44132 L402,115.44132 L519,64.4413203 Z M305.84,5.45132025 C337.83,-13.0086797 350.4,18.4213203 357.38,54.6913203 C360.63,71.5913203 342.22,83.9113203 328.33,71.2813203 C307.84,52.6513203 281.93,19.2413203 305.84,5.45132025 Z" id="shape" fill="#FF3F0C"></path></g></g></svg>